<?xml version="1.0" encoding="utf-8"?>
<!-- Generator: Adobe Illustrator 19.1.0, SVG Export Plug-In . SVG Version: 6.00 Build 0)  -->
<svg version="1.1" id="Layer_1" xmlns="http://www.w3.org/2000/svg" xmlns:xlink="http://www.w3.org/1999/xlink" x="0px" y="0px"
	 viewBox="0 0 96.2 60.3" style="enable-background:new 0 0 96.2 60.3;" xml:space="preserve">
<style type="text/css">
	.st0{clip-path:url(#SVGID_2_);}
	.st1{clip-path:url(#SVGID_4_);fill:#FFFFFF;}
</style>
<g>
	<defs>
		<path id="SVGID_1_" d="M32.9,13c1.5,0,2.8,1.2,2.8,2.7c0,1.5-1.2,2.7-2.8,2.7c-1.5,0-2.8-1.2-2.8-2.7C30.1,14.2,31.3,13,32.9,13z
			 M79.4,43.9c-3.4,0.7-7.7,1.8-7.7,3.8c0,1.9,2.1,2.3,3.8,1.9C79.1,49,79.5,46.9,79.4,43.9z M20.7,29.2c0-3.3-1.7-4.4-4.3-3.9
			c-2.1,0.4-4,2.3-4.2,5.2c0,0.5-0.1,1.1,0,1.9c0.1,2,1.6,2.9,4,2.9C20.1,35.2,20.7,31.4,20.7,29.2z M65.6,26.6
			c-0.3,5.1-1.3,8.7-4.7,8.7c-1.3,0-1.8-0.7-1.8-1.7c0.1-11.6,0.4-16.1,0.4-19.1c0-1.5-1.1-2.7-2.6-2.7c-1.5,0-2.8,1.3-2.8,2.8
			c0,2.6,0.1,4.6,0.2,11.6c-0.3,5.9-1.6,9.1-5.2,9.1c-1.8,0-2.5-1.2-2.5-2.2c0-2.9,0.1-6.5,0.2-9.5c0,0,2.1,0,3.1,0
			c1,0,1.8-0.7,1.8-1.7c0-1-0.6-1.8-2.1-1.8c-1.6,0-2.7,0-2.8,0c0-1.7,0.1-3.3,0.1-4.4c0-1.5-1.2-2.7-2.7-2.7
			c-1.5,0-2.7,1.2-2.7,2.7c0,1.3,0,4.4,0,4.4c-1.2,0-1.9,0.8-1.9,1.7s0.7,1.6,2.1,1.6c0,0,0,1.7,0,3.8c-0.2,5.6-1.3,8-4.4,8
			c-1.6,0-2.1-1.5-2.1-2.4c0-1.7,0.1-4.8,0.3-9.6c0.1-1.4-1-2.8-2.5-2.8c-1.5,0-2.5,1.3-2.5,2.7c0,0,0,0.5,0,1.3
			c-0.2,3.9-1.3,7.9-6.3,10.2c4-7,0.1-14.4-6-14.4c-2.9,0-4.7,1-5.9,2c0-2.2,0.1-6,0.1-6c0-2.7-1-4.8-4.3-4.9
			c-1.9,0-3.4,0.8-4.3,2.8c-0.3,0.7-0.2,1.5,0.4,1.9c0.5,0.3,1.4,0.1,1.8-0.5c0.3-0.4,0.5-0.4,0.7-0.4c0.4,0,0.4,0.7,0.4,1.1
			c0,0.3,0.3,4.1,0.2,16c0,3.3,2.6,7.5,8.9,7.5c6.3,0,11.2-1.6,14.3-4.9c0.1,3.1,3.1,4.8,5.9,4.8c2.9,0,5-0.6,6.4-2.2
			c1.1,1.3,3,2.2,5.5,2.2c2.9,0,5-1,6.6-2.8c1,1.7,3.2,2.8,5.4,2.8c3.4,0,5.6-1.1,7-3.4c1.2,1.9,3.3,3.3,6.2,3.4
			c3.8,0.1,5.3-1.8,5.3-1.8l0.2,2.3c-6.8,1.7-11.5,3-11.5,7.6c0,2.9,2.7,6.3,8.8,5.5c7-1,7.3-6.5,7.3-10.2c3.3-1.1,4.6-2.5,5.6-4.7
			c0.4-0.9,0.4-2-0.6-2.6c-0.8-0.4-2-0.2-2.6,0.8c-1.1,1.6-2.1,2.3-2.8,2.5c-0.2-1.4-0.1-7.6-0.1-7.6c0-3.1,0.2-5,0.2-7
			c0-1.5-1.1-2.7-2.6-2.7c-1.5,0-2.6,1.2-2.6,2.7c0,2,0.1,3.3,0,5.5c-0.1,4.5-2.4,5.4-4.6,5.4c-2.2,0-3.1-2.3-3.1-4.9
			c0-2.2,0.1-3.9,0.1-5.9c0-1.5-0.9-2.7-2.4-2.7c-1.5,0-2.5,1.2-2.5,2.7C65.6,25.1,65.6,25.8,65.6,26.6z"/>
	</defs>
	<clipPath id="SVGID_2_">
		<use xlink:href="#SVGID_1_"  style="overflow:visible;"/>
	</clipPath>
	<g class="st0">
		<defs>
			<rect id="SVGID_3_" x="-114.5" y="-20.6" width="1400" height="639"/>
		</defs>
		<clipPath id="SVGID_4_">
			<use xlink:href="#SVGID_3_"  style="overflow:visible;"/>
		</clipPath>
		<rect x="-1.5" y="6.4" class="st1" width="96" height="52"/>
	</g>
</g>
</svg>
